<svg width="22" height="29" viewBox="0 0 22 29" fill="none" xmlns="http://www.w3.org/2000/svg">
<path d="M18.9997 9.66671H17.6663V7.00004C17.6663 3.32004 14.6797 0.333374 10.9997 0.333374C7.31967 0.333374 4.33301 3.32004 4.33301 7.00004V9.66671H2.99967C1.53301 9.66671 0.333008 10.8667 0.333008 12.3334V25.6667C0.333008 27.1334 1.53301 28.3334 2.99967 28.3334H18.9997C20.4663 28.3334 21.6663 27.1334 21.6663 25.6667V12.3334C21.6663 10.8667 20.4663 9.66671 18.9997 9.66671ZM10.9997 21.6667C9.53301 21.6667 8.33301 20.4667 8.33301 19C8.33301 17.5334 9.53301 16.3334 10.9997 16.3334C12.4663 16.3334 13.6663 17.5334 13.6663 19C13.6663 20.4667 12.4663 21.6667 10.9997 21.6667ZM6.99967 9.66671V7.00004C6.99967 4.78671 8.78634 3.00004 10.9997 3.00004C13.213 3.00004 14.9997 4.78671 14.9997 7.00004V9.66671H6.99967Z" fill="url(#paint0_linear_29_120)"/>
<defs>
<linearGradient id="paint0_linear_29_120" x1="10.9997" y1="0.333374" x2="10.9997" y2="28.3334" gradientUnits="userSpaceOnUse">
<stop stop-color="#FFBF00"/>
<stop offset="1" stop-color="#F2A50C"/>
</linearGradient>
</defs>
</svg>
