<svg width="22" height="22" viewBox="0 0 22 22" fill="none" xmlns="http://www.w3.org/2000/svg">
<path d="M3.06652 5.73333C1.32089 7.47925 0.338025 9.84561 0.333027 12.3145C0.328029 14.7834 1.30131 17.1537 3.03985 18.9067C4.99985 14.3733 8.49319 10.5867 12.8532 8.33333C9.08994 11.5176 6.54961 15.9101 5.66652 20.76C9.13319 22.4 13.3999 21.8 16.2665 18.9333C20.2532 14.9467 21.3732 4.08 21.6132 1.09333C21.6215 0.998434 21.609 0.902856 21.5764 0.813325C21.5439 0.723794 21.4921 0.642486 21.4247 0.575122C21.3574 0.507758 21.2761 0.455974 21.1865 0.423415C21.097 0.390856 21.0014 0.378313 20.9065 0.386667C17.9199 0.626667 7.05319 1.74667 3.06652 5.73333Z" fill="url(#paint0_linear_29_95)"/>
<defs>
<linearGradient id="paint0_linear_29_95" x1="10.9744" y1="0.384155" x2="10.9744" y2="21.6592" gradientUnits="userSpaceOnUse">
<stop stop-color="#FFBF00"/>
<stop offset="1" stop-color="#F2A50C"/>
</linearGradient>
</defs>
</svg>
